<svg width="400" height="256" viewBox="0 0 400 256" fill="none" xmlns="http://www.w3.org/2000/svg">
<path d="M91.4366 127.864C133.352 148.822 133.352 226.907 91.4366 247.864C70.4789 258.343 52.3943 258.343 31.4366 247.864C-10.4789 226.907 -10.4789 148.822 31.4366 127.864C52.3943 117.386 70.4789 117.386 91.4366 127.864Z" fill="white"/>
<path d="M170.937 7.8644C212.768 28.8151 129.105 106.714 170.937 127.664C191.888 138.157 209.972 117.199 230.937 127.664C272.936 148.629 272.936 226.9 230.937 247.864C209.972 258.329 191.895 258.343 170.937 247.864C129.021 226.907 212.852 148.822 170.937 127.864C149.979 117.386 131.894 138.343 110.937 127.864C69.0211 106.907 32.1776 28.8221 74.093 7.86439C95.0508 -2.61448 149.986 -2.62846 170.937 7.8644Z" fill="white"/>
<path d="M308.202 7.86446C350.034 28.8152 266.371 106.714 308.202 127.664C329.153 138.157 347.238 117.2 368.202 127.664C410.202 148.629 410.202 226.9 368.202 247.864C347.238 258.329 329.16 258.343 308.202 247.864C266.287 226.907 350.118 148.822 308.202 127.864C287.245 117.386 269.16 138.343 248.202 127.864C206.287 106.907 206.287 28.8222 248.202 7.86446C269.16 -2.61441 287.252 -2.6284 308.202 7.86446Z" fill="white"/>
</svg>
