<svg width="256" height="263" viewBox="0 0 256 263" fill="none" xmlns="http://www.w3.org/2000/svg">
<path d="M127.859 91.4366C106.901 133.352 28.8169 133.352 7.85916 91.4366C-2.61971 70.4789 -2.61971 52.3943 7.85916 31.4366C28.8169 -10.4789 106.901 -10.4789 127.859 31.4366C138.338 52.3943 138.338 70.4789 127.859 91.4366Z" fill="white"/>
<path d="M247.859 170.937C226.909 212.768 149.01 129.105 128.059 170.937C117.566 191.888 138.524 209.972 128.059 230.937C107.095 272.936 28.8239 272.936 7.85922 230.937C-2.60569 209.972 -2.61964 191.895 7.85922 170.937C28.817 129.021 106.902 212.852 127.859 170.937C138.338 149.979 117.38 131.894 127.859 110.937C148.817 69.0211 226.902 32.1776 247.859 74.093C258.338 95.0508 258.352 149.986 247.859 170.937Z" fill="white"/>
</svg>
